<svg width="32" height="32" viewBox="0 0 100 100" fill="none" xmlns="http://www.w3.org/2000/svg">
  <defs>
    <linearGradient id="logo-gradient" x1="0%" y1="0%" x2="100%" y2="100%">
      <stop offset="0%" stop-color="#8b5cf6" />
      <stop offset="100%" stop-color="#ec4899" />
    </linearGradient>
    <filter id="logo-glow" x="-20%" y="-20%" width="140%" height="140%">
      <feGaussianBlur stdDeviation="4" result="blur" />
      <feComposite in="SourceGraphic" in2="blur" operator="over" />
    </filter>
  </defs>
  
  <rect x="6" y="6" width="88" height="88" rx="28" fill="url(#logo-gradient)" opacity="0.08" />
  <rect x="6" y="6" width="88" height="88" rx="28" stroke="url(#logo-gradient)" stroke-width="2" opacity="0.25" />

  <path d="M36 60C32 50 36 38 46 36C40 45 40 55 46 60C40 60 36 60 36 60Z" fill="url(#logo-gradient)" opacity="0.7" />
  <path d="M64 60C68 50 64 38 54 36C60 45 60 55 54 60C60 60 64 60 64 60Z" fill="url(#logo-gradient)" opacity="0.7" />
  <path d="M50 25C50 25 35 48 35 60C35 68.28 41.72 75 50 75C58.28 75 65 68.28 65 60C65 48 50 25 50 25Z" fill="url(#logo-gradient)" filter="url(#logo-glow)" />
  <path d="M43 58L48 63L58 51" stroke="white" stroke-width="4" stroke-linecap="round" stroke-linejoin="round" />
</svg>
